<svg preserveAspectRatio="none" width="100%" height="100%" overflow="visible" style="display: block;" viewBox="0 0 32 32" fill="none" xmlns="http://www.w3.org/2000/svg">
<g id="Frame">
<path id="Vector" d="M9.33333 21.3333C8.02002 21.3348 6.75234 20.8516 5.77316 19.9764C4.79398 19.1012 4.17215 17.8955 4.02681 16.5902C3.88147 15.285 4.22284 13.972 4.98551 12.9028C5.74818 11.8336 6.87853 11.0835 8.16 10.796C7.78923 9.06679 8.12057 7.26111 9.08113 5.7762C10.0417 4.29129 11.5528 3.24877 13.282 2.878C15.0112 2.50723 16.8169 2.83857 18.3018 3.79913C19.7867 4.75969 20.8292 6.27079 21.2 8H21.3333C22.9866 7.99834 24.5815 8.61104 25.8084 9.71917C27.0354 10.8273 27.8068 12.3518 27.9729 13.9967C28.1391 15.6416 27.6881 17.2895 26.7076 18.6206C25.727 19.9517 24.2869 20.871 22.6667 21.2M20 17.3333L16 13.3333M16 13.3333L12 17.3333M16 13.3333V29.3333" stroke="var(--stroke-0, black)" stroke-width="1.5" stroke-linecap="round" stroke-linejoin="round"/>
</g>
</svg>
